<svg xmlns="http://www.w3.org/2000/svg" width="90" height="90" viewBox="0 0 90 90">
  <g id="vuesax_linear_setting-5" data-name="vuesax/linear/setting-5" transform="translate(-492 -188)">
    <g id="setting-5" transform="translate(492 188)">
      <path id="Vector" d="M0,42.25a1,1,0,0,1-1-1V0A1,1,0,0,1,0-1,1,1,0,0,1,1,0V41.25A1,1,0,0,1,0,42.25Z" transform="translate(71.25 41.25)" fill="#292d32"/>
      <path id="Vector-2" data-name="Vector" d="M0,19.75a1,1,0,0,1-1-1V0A1,1,0,0,1,0-1,1,1,0,0,1,1,0V18.75A1,1,0,0,1,0,19.75Z" transform="translate(71.25 7.5)" fill="#292d32"/>
      <path id="Vector-3" data-name="Vector" d="M0,19.75a1,1,0,0,1-1-1V0A1,1,0,0,1,0-1,1,1,0,0,1,1,0V18.75A1,1,0,0,1,0,19.75Z" transform="translate(45 63.75)" fill="#292d32"/>
      <path id="Vector-4" data-name="Vector" d="M0,42.25a1,1,0,0,1-1-1V0A1,1,0,0,1,0-1,1,1,0,0,1,1,0V41.25A1,1,0,0,1,0,42.25Z" transform="translate(45 7.5)" fill="#292d32"/>
      <path id="Vector-5" data-name="Vector" d="M0,42.25a1,1,0,0,1-1-1V0A1,1,0,0,1,0-1,1,1,0,0,1,1,0V41.25A1,1,0,0,1,0,42.25Z" transform="translate(18.75 41.25)" fill="#292d32"/>
      <path id="Vector-6" data-name="Vector" d="M0,19.75a1,1,0,0,1-1-1V0A1,1,0,0,1,0-1,1,1,0,0,1,1,0V18.75A1,1,0,0,1,0,19.75Z" transform="translate(18.75 7.5)" fill="#292d32"/>
      <path id="Vector-7" data-name="Vector" d="M15,1H0A1,1,0,0,1-1,0,1,1,0,0,1,0-1H15a1,1,0,0,1,1,1A1,1,0,0,1,15,1Z" transform="translate(11.25 41.25)" fill="#292d32"/>
      <path id="Vector-8" data-name="Vector" d="M15,1H0A1,1,0,0,1-1,0,1,1,0,0,1,0-1H15a1,1,0,0,1,1,1A1,1,0,0,1,15,1Z" transform="translate(63.75 41.25)" fill="#292d32"/>
      <path id="Vector-9" data-name="Vector" d="M15,1H0A1,1,0,0,1-1,0,1,1,0,0,1,0-1H15a1,1,0,0,1,1,1A1,1,0,0,1,15,1Z" transform="translate(37.5 48.75)" fill="#292d32"/>
      <path id="Vector-10" data-name="Vector" d="M0,0H90V90H0Z" fill="none" opacity="0"/>
    </g>
  </g>
</svg>
