<svg id="arrow-right" xmlns="http://www.w3.org/2000/svg" width="16" height="16" viewBox="0 0 16 16">
  <path id="Vector" d="M-.25,10.81A.5.5,0,0,1-.6,10.664a.5.5,0,0,1,0-.707L3.743,5.61a.821.821,0,0,0,0-1.16L-.6.1A.5.5,0,0,1-.6-.6.5.5,0,0,1,.1-.6L4.45,3.743a1.822,1.822,0,0,1,0,2.574L.1,10.664A.5.5,0,0,1-.25,10.81Z" transform="translate(6.19 2.97)" fill="#51459e"/>
  <path id="Vector-2" data-name="Vector" d="M0,0H16V16H0Z" transform="translate(16 16) rotate(180)" fill="none" opacity="0"/>
</svg>
