<svg xmlns="http://www.w3.org/2000/svg" width="90" height="90" viewBox="0 0 90 90">
  <g id="vuesax_linear_clipboard-text" data-name="vuesax/linear/clipboard-text" transform="translate(-108 -252)">
    <g id="clipboard-text" transform="translate(108 252)">
      <path id="Vector" d="M26.25,1H0A1,1,0,0,1-1,0,1,1,0,0,1,0-1H26.25a1,1,0,0,1,1,1A1,1,0,0,1,26.25,1Z" transform="translate(30 45.75)" fill="#292d32"/>
      <path id="Vector-2" data-name="Vector" d="M16.425,1H0A1,1,0,0,1-1,0,1,1,0,0,1,0-1H16.425a1,1,0,0,1,1,1A1,1,0,0,1,16.425,1Z" transform="translate(30 60.75)" fill="#292d32"/>
      <path id="Vector-3" data-name="Vector" d="M22.5,16H7.5c-1.992,0-4.053,0-5.711-1.105A5.564,5.564,0,0,1-.287,12.2,13,13,0,0,1-1,7.5,13,13,0,0,1-.287,2.8,5.564,5.564,0,0,1,1.789.105C3.447-1,5.508-1,7.5-1h15c1.992,0,4.053,0,5.711,1.105a5.564,5.564,0,0,1,2.077,2.7A13,13,0,0,1,31,7.5c0,1.992,0,4.053-1.105,5.711a5.564,5.564,0,0,1-2.7,2.077A13,13,0,0,1,22.5,16ZM7.5,1c-1.773,0-3.447,0-4.6.77C1,3.035,1,6.4,1,7.5c0,4.465,1.429,5.417,1.9,5.73C4.053,14,5.727,14,7.5,14h15c4.465,0,5.417-1.429,5.73-1.9C29,10.947,29,9.273,29,7.5c0-4.465-1.429-5.417-1.9-5.73C25.947,1,24.273,1,22.5,1Z" transform="translate(30 7.5)" fill="#292d32"/>
      <path id="Vector-4" data-name="Vector" d="M45,68.425H22.5a39.49,39.49,0,0,1-11.725-1.452,15.537,15.537,0,0,1-7.309-4.514A16.675,16.675,0,0,1-.1,54.992,45.212,45.212,0,0,1-1,44.925v-22.5C-1,13.771.575,8.036,3.958,4.375,7.035,1.043,11.581-.614,18.7-1a1,1,0,0,1,1.053.945A1,1,0,0,1,18.8,1C12.249,1.353,8.123,2.813,5.427,5.732,2.407,9,1,14.305,1,22.425v22.5C1,53.11,2.188,57.96,4.971,61.141a13.6,13.6,0,0,0,6.4,3.923A37.582,37.582,0,0,0,22.5,66.425H45a37.582,37.582,0,0,0,11.126-1.36,13.6,13.6,0,0,0,6.4-3.923C65.312,57.96,66.5,53.11,66.5,44.925v-22.5c0-8.134-1.406-13.443-4.426-16.707C59.382,2.809,55.256,1.353,48.7,1a1,1,0,0,1-.945-1.053A1,1,0,0,1,48.8-1c7.12.385,11.666,2.038,14.738,5.359,3.383,3.656,4.958,9.4,4.958,18.065v22.5a45.212,45.212,0,0,1-.9,10.067,16.675,16.675,0,0,1-3.562,7.466,15.537,15.537,0,0,1-7.309,4.514A39.49,39.49,0,0,1,45,68.425Z" transform="translate(11.25 15.075)" fill="#292d32"/>
      <path id="Vector-5" data-name="Vector" d="M0,0H90V90H0Z" fill="none" opacity="0"/>
    </g>
  </g>
</svg>
