<svg xmlns="http://www.w3.org/2000/svg" width="40" height="40" viewBox="0 0 40 40">
  <g id="vuesax_bold_home-trend-up" data-name="vuesax/bold/home-trend-up" transform="translate(-428 -188)">
    <g id="home-trend-up" transform="translate(428 188)">
      <path id="Vector" d="M30.083,8.03l-9.6-6.717a8.088,8.088,0,0,0-9.15.217L2.983,8.046A8.588,8.588,0,0,0,0,14.113v11.5A7.718,7.718,0,0,0,7.7,33.33H25.667a7.7,7.7,0,0,0,7.7-7.7V14.33A8.506,8.506,0,0,0,30.083,8.03ZM24.817,19a1.167,1.167,0,1,1-2.333,0v-.3L17.95,23.23a1.136,1.136,0,0,1-1.767-.183l-1.7-2.533L10.517,24.48a1.12,1.12,0,0,1-.817.333,1.161,1.161,0,0,1-.817-.333,1.177,1.177,0,0,1,0-1.65l4.967-4.967a1.146,1.146,0,0,1,.933-.333,1.108,1.108,0,0,1,.85.517l1.7,2.533,3.517-3.517h-.3a1.167,1.167,0,0,1,0-2.333h3.1a1.429,1.429,0,0,1,.45.083,1.179,1.179,0,0,1,.633.633,1.077,1.077,0,0,1,.083.45Z" transform="translate(3.317 3.337)" fill="#51459e"/>
      <path id="Vector-2" data-name="Vector" d="M0,0H40V40H0Z" transform="translate(40 40) rotate(180)" fill="none" opacity="0"/>
    </g>
  </g>
</svg>
