<svg xmlns="http://www.w3.org/2000/svg" width="40" height="40" viewBox="0 0 40 40">
  <g id="vuesax_bold_mouse-circle" data-name="vuesax/bold/mouse-circle" transform="translate(-620 -636)">
    <g id="mouse-circle" transform="translate(620 636)">
      <path id="Vector" d="M0,0H40V40H0Z" fill="none" opacity="0"/>
      <path id="Vector-2" data-name="Vector" d="M13.25,8.038l-2.717.917a2.509,2.509,0,0,0-1.6,1.6l-.917,2.717a2.527,2.527,0,0,1-4.817-.05L.117,3.3A2.532,2.532,0,0,1,3.283.121L13.217,3.2A2.544,2.544,0,0,1,13.25,8.038Z" transform="translate(21.683 21.695)" fill="#1b9bde"/>
      <path id="Vector-3" data-name="Vector" d="M31.672,15.839a18.1,18.1,0,0,1-.133,2.133.818.818,0,0,1-1.067.65l-8.083-2.517a5.031,5.031,0,0,0-6.3,6.317l2.5,8.05a.828.828,0,0,1-.667,1.067,17.484,17.484,0,0,1-2.083.133A15.834,15.834,0,0,1,.006,15.389,16.017,16.017,0,0,1,15.389.006,15.834,15.834,0,0,1,31.672,15.839Z" transform="translate(3.328 3.328)" fill="#1b9bde"/>
    </g>
  </g>
</svg>
