<svg xmlns="http://www.w3.org/2000/svg" width="70.125" height="69.964" viewBox="0 0 70.125 69.964">
  <g id="Group_9975" data-name="Group 9975" transform="translate(5361 -15500)">
    <path id="Union_1" data-name="Union 1" d="M27.165,63.969,17.452,65.31,13.82,56.16,4.659,52.532,6,42.83,0,35.021l6.081-7.888-1.342-9.7L13.9,13.8l3.633-9.15,9.713,1.341L35.062,0l7.9,6.074,9.713-1.341,3.633,9.15,9.16,3.628-1.342,9.7,6,7.809-6.16,7.73,1.342,9.7-9.16,3.707-3.633,9.15L42.8,63.969l-7.818,5.995Z" transform="translate(-5361 15500)" fill="#5a9e45"/>
    <g id="Group_9974" data-name="Group 9974" transform="matrix(0.966, -0.259, 0.259, 0.966, -5348.265, 15530.39)">
      <path id="Path_5207" data-name="Path 5207" d="M3.55,14.645V9.756H6.058a4.66,4.66,0,0,0,5.016-4.868A4.687,4.687,0,0,0,6.058,0H0V14.645ZM5.888,3.1A1.6,1.6,0,0,1,7.482,4.889,1.6,1.6,0,0,1,5.888,6.7H3.55V3.1ZM20.469,14.645h3.762L18.854,0H14.985l-5.4,14.645h3.8l1.233-3.358h4.612ZM16.9,3.4l1.424,4.825H15.58Zm7.673,11.244h3.55V0h-3.55ZM33.9,3.167h2.232c2.062,0,3.1,2.041,3.1,4.187s-1.042,4.124-3.1,4.124H33.9ZM30.332,14.645h5.8c4.23,0,6.653-3.125,6.653-7.291S40.364,0,36.134,0h-5.8Z" transform="translate(0.106 3.587)" fill="#fff"/>
      <path id="Path_5205" data-name="Path 5205" d="M0,0H41.961" transform="translate(0 21.255)" fill="none" stroke="#fff" stroke-width="4"/>
      <path id="Path_5206" data-name="Path 5206" d="M0,0H41.961" transform="translate(0 0)" fill="none" stroke="#fff" stroke-width="4"/>
    </g>
  </g>
</svg>
