<svg xmlns="http://www.w3.org/2000/svg" width="40" height="40" viewBox="0 0 40 40">
  <g id="vuesax_bold_calendar" data-name="vuesax/bold/calendar" transform="translate(-300 -252)">
    <g id="calendar" transform="translate(300 252)">
      <path id="Vector" d="M1.25,7.5A1.259,1.259,0,0,1,0,6.25v-5A1.259,1.259,0,0,1,1.25,0,1.259,1.259,0,0,1,2.5,1.25v5A1.259,1.259,0,0,1,1.25,7.5Z" transform="translate(12.5 2.083)" fill="#51459e"/>
      <path id="Vector-2" data-name="Vector" d="M1.25,7.5A1.259,1.259,0,0,1,0,6.25v-5A1.259,1.259,0,0,1,1.25,0,1.259,1.259,0,0,1,2.5,1.25v5A1.259,1.259,0,0,1,1.25,7.5Z" transform="translate(25 2.083)" fill="#51459e"/>
      <path id="Vector-3" data-name="Vector" d="M1.5,2.65A1.353,1.353,0,0,0,3,1.317,1.332,1.332,0,0,0,1.5,0,1.332,1.332,0,0,0,0,1.317,1.353,1.353,0,0,0,1.5,2.65Z" transform="translate(18.5 20.833)" fill="#51459e"/>
      <path id="Vector-4" data-name="Vector" d="M3.8,1.55A1.752,1.752,0,0,1,1.9,3.1,1.752,1.752,0,0,1,0,1.55,1.752,1.752,0,0,1,1.9,0,1.752,1.752,0,0,1,3.8,1.55Z" transform="translate(18.1 25.233)" fill="#51459e"/>
      <path id="Vector-5" data-name="Vector" d="M28.45,1.667a1.684,1.684,0,0,0-2.683,1.35v.167a3.9,3.9,0,0,1-3.35,3.95A3.756,3.756,0,0,1,18.267,3.4V1.667A1.672,1.672,0,0,0,16.6,0H15.067A1.672,1.672,0,0,0,13.4,1.667V3.4a3.7,3.7,0,0,1-1.717,3.133A4.49,4.49,0,0,1,11.2,6.8a2.238,2.238,0,0,1-.5.2,2.645,2.645,0,0,1-.65.133,3.212,3.212,0,0,1-.8,0A2.645,2.645,0,0,1,8.6,7a3.128,3.128,0,0,1-.5-.2,4.49,4.49,0,0,1-.483-.267A4.112,4.112,0,0,1,5.9,3.183V3.017a1.691,1.691,0,0,0-2.45-1.5c-.017.017-.033.017-.05.033a1.121,1.121,0,0,0-.183.117c-.05.05-.117.083-.167.133A7.2,7.2,0,0,0,1.817,3.033a4.123,4.123,0,0,0-.467.633.23.23,0,0,0-.05.067,5.83,5.83,0,0,0-.4.7c-.033.033-.05.05-.05.083a4.05,4.05,0,0,0-.267.617,1.4,1.4,0,0,0-.1.233,6.466,6.466,0,0,0-.233.75A5.194,5.194,0,0,0,.1,6.85c-.033.183-.05.367-.067.567C.017,7.65,0,7.883,0,8.117v14.6a8.116,8.116,0,0,0,8.117,8.117H23.55a8.116,8.116,0,0,0,8.117-8.117V8.117A8.065,8.065,0,0,0,28.45,1.667ZM15.833,24.583c-2.583,0-4.167-1.283-4.167-3.35a3.059,3.059,0,0,1,1.6-2.7A2.739,2.739,0,0,1,12.05,16.2c0-2.167,1.733-3.283,3.783-3.283S19.6,14.033,19.6,16.2a2.7,2.7,0,0,1-1.217,2.333A3.042,3.042,0,0,1,20,21.233C20,23.3,18.4,24.583,15.833,24.583Z" transform="translate(4.167 5.833)" fill="#51459e"/>
      <path id="Vector-6" data-name="Vector" d="M0,0H40V40H0Z" transform="translate(40 40) rotate(180)" fill="none" opacity="0"/>
    </g>
  </g>
</svg>
