<svg xmlns="http://www.w3.org/2000/svg" width="32" height="32" viewBox="0 0 32 32">
  <g id="save-2" transform="translate(-556 -188)">
    <path id="Vector" d="M4.147-1H14.52a5.14,5.14,0,0,1,5.133,5.149V19.293a3.521,3.521,0,0,1-.711,2.255,2.571,2.571,0,0,1-2.035.951,3.738,3.738,0,0,1-1.823-.52L9.847,19.06a1.136,1.136,0,0,0-.515-.1,1.188,1.188,0,0,0-.529.106L3.567,21.98a3.736,3.736,0,0,1-1.821.519,2.571,2.571,0,0,1-2.035-.951A3.521,3.521,0,0,1-1,19.293V4.147A5.152,5.152,0,0,1,4.147-1ZM16.908,20.5c.649,0,.745-.756.745-1.206V4.147s0,0,0-.006A3.14,3.14,0,0,0,14.52,1H4.147A3.15,3.15,0,0,0,1,4.147V19.293c0,.45.1,1.206.745,1.206a1.814,1.814,0,0,0,.847-.266l5.241-2.921.006,0a3.157,3.157,0,0,1,1.492-.353,3.1,3.1,0,0,1,1.491.358l5.238,2.919A1.816,1.816,0,0,0,16.908,20.5Z" transform="translate(558.667 195.84)" fill="#dd3636"/>
    <path id="Vector-2" data-name="Vector" d="M4.147-1H14.52a5.152,5.152,0,0,1,5.147,5.147V19.293a3.507,3.507,0,0,1-.713,2.254,2.576,2.576,0,0,1-2.034.946,3.764,3.764,0,0,1-1.815-.511l-5.24-2.92a1.384,1.384,0,0,0-1.061,0L3.567,21.98a3.77,3.77,0,0,1-1.819.513,2.576,2.576,0,0,1-2.035-.946A3.507,3.507,0,0,1-1,19.293V4.147A5.152,5.152,0,0,1,4.147-1ZM16.919,20.494c.65,0,.747-.752.747-1.2V4.147A3.15,3.15,0,0,0,14.52,1H4.147A3.15,3.15,0,0,0,1,4.147V19.293c0,.448.1,1.2.747,1.2a1.839,1.839,0,0,0,.85-.263l5.236-2.918.006,0a3.337,3.337,0,0,1,2.987,0l.006,0,5.24,2.92A1.832,1.832,0,0,0,16.919,20.494Z" transform="translate(558.667 195.84)" fill="#dd3636"/>
    <path id="Vector-3" data-name="Vector" d="M4.147-1H14.52a5.152,5.152,0,0,1,5.147,5.147V19.293a3.507,3.507,0,0,1-.713,2.254,2.576,2.576,0,0,1-2.034.946,3.764,3.764,0,0,1-1.815-.511l0,0-4.92-2.747a1,1,0,0,1-.513-.873V9.32A3.15,3.15,0,0,0,6.52,6.173H0a1,1,0,0,1-1-1V4.147A5.152,5.152,0,0,1,4.147-1ZM16.919,20.494c.65,0,.747-.752.747-1.2V4.147A3.15,3.15,0,0,0,14.52,1H4.147A3.15,3.15,0,0,0,1,4.147v.027H6.52A5.152,5.152,0,0,1,11.667,9.32v8.453l4.4,2.459A1.837,1.837,0,0,0,16.919,20.494Z" transform="translate(566.667 190.667)" fill="#dd3636"/>
    <path id="Vector-4" data-name="Vector" d="M0,0H32V32H0Z" transform="translate(556 188)" fill="none" opacity="0"/>
  </g>
</svg>
