<svg xmlns="http://www.w3.org/2000/svg" width="90" height="90" viewBox="0 0 90 90">
  <g id="vuesax_linear_user-square" data-name="vuesax/linear/user-square" transform="translate(-748 -188)">
    <g id="user-square" transform="translate(748 188)">
      <path id="Vector" d="M33.912,20.072H11.65A41.337,41.337,0,0,1-.289,18.589,1,1,0,0,1-1,17.549,18.775,18.775,0,0,1,6.561,4.329,26.474,26.474,0,0,1,22.781-1,26.474,26.474,0,0,1,39,4.329a18.775,18.775,0,0,1,7.558,13.22,1,1,0,0,1-.708,1.04A41.337,41.337,0,0,1,33.912,20.072ZM1.087,16.9A41.064,41.064,0,0,0,11.65,18.072H33.912A41.064,41.064,0,0,0,44.475,16.9a16.978,16.978,0,0,0-6.7-10.992A24.467,24.467,0,0,0,22.781,1,24.467,24.467,0,0,0,7.788,5.908,16.978,16.978,0,0,0,1.087,16.9Z" transform="translate(22.219 63.344)" fill="#292d32"/>
      <path id="Vector-2" data-name="Vector" d="M26.192-1h22.45A43.005,43.005,0,0,1,60.912.5,19.67,19.67,0,0,1,69.46,5.371a19.663,19.663,0,0,1,4.87,8.546,42.974,42.974,0,0,1,1.5,12.268V48.629c0,7.372-1.157,12.966-3.538,17.1-2.466,4.285-6.271,7.105-11.632,8.623a1,1,0,0,1-1.269-.878A16.483,16.483,0,0,0,52.55,61.844,25.061,25.061,0,0,0,37.417,57a25.061,25.061,0,0,0-15.133,4.846,16.483,16.483,0,0,0-6.844,11.633,1,1,0,0,1-1.269.878C8.809,72.837,5,70.017,2.538,65.732.157,61.6-1,56-1,48.629V26.185A42.974,42.974,0,0,1,.5,13.917a19.663,19.663,0,0,1,4.87-8.546A19.67,19.67,0,0,1,13.921.5,43.005,43.005,0,0,1,26.192-1ZM61.237,72.085a16.147,16.147,0,0,0,9.325-7.35c2.2-3.825,3.272-9.093,3.272-16.105V26.185a41.045,41.045,0,0,0-1.42-11.7,17.721,17.721,0,0,0-4.367-7.7A17.728,17.728,0,0,0,60.341,2.42,41.076,41.076,0,0,0,48.642,1H26.192a41.076,41.076,0,0,0-11.7,1.42A17.728,17.728,0,0,0,6.787,6.786a17.721,17.721,0,0,0-4.367,7.7A41.045,41.045,0,0,0,1,26.185V48.629c0,7.012,1.07,12.28,3.272,16.105a16.147,16.147,0,0,0,9.325,7.35,18.718,18.718,0,0,1,7.477-11.833A27.07,27.07,0,0,1,37.417,55,27.07,27.07,0,0,1,53.76,60.252,18.718,18.718,0,0,1,61.237,72.085ZM37.417,17.7a14.38,14.38,0,1,1-10.183,4.211A14.305,14.305,0,0,1,37.417,17.7Zm0,26.821a12.412,12.412,0,1,0-8.767-3.643A12.295,12.295,0,0,0,37.417,44.524Z" transform="translate(7.583 7.583)" fill="#292d32"/>
      <path id="Vector-3" data-name="Vector" d="M13.574-1A14.593,14.593,0,0,1,23.885,23.9,14.574,14.574,0,0,1-1,13.574,14.561,14.561,0,0,1,13.574-1Zm0,27.186A12.593,12.593,0,0,0,26.148,13.574a12.58,12.58,0,0,0-21.469-8.9,12.616,12.616,0,0,0,0,17.811A12.47,12.47,0,0,0,13.574,26.186Z" transform="translate(31.426 26.126)" fill="#292d32"/>
      <path id="Vector-4" data-name="Vector" d="M0,0H90V90H0Z" fill="none" opacity="0"/>
    </g>
  </g>
</svg>
